<?xml version="1.0" standalone="no"?>
<!DOCTYPE svg PUBLIC "-//W3C//DTD SVG 20010904//EN"
 "http://www.w3.org/TR/2001/REC-SVG-20010904/DTD/svg10.dtd">
<svg version="1.0" xmlns="http://www.w3.org/2000/svg"
 width="128.000000pt" height="128.000000pt" viewBox="0 0 128.000000 128.000000"
 preserveAspectRatio="xMidYMid meet">
<metadata>
Created by potrace 1.11, written by Peter Selinger 2001-2013
</metadata>
<g transform="translate(0.000000,128.000000) scale(0.100000,-0.100000)"
fill="#000000" stroke="none">
<path d="M480 1273 c-8 -3 -33 -14 -55 -26 -22 -11 -56 -21 -75 -22 -44 -1
-160 -37 -160 -48 0 -4 -4 -6 -9 -2 -5 3 -17 -2 -25 -11 -9 -8 -16 -13 -16 -9
0 7 -48 -24 -82 -54 -15 -13 -25 -28 -22 -32 3 -5 0 -9 -6 -9 -6 0 -8 -5 -4
-11 3 -6 1 -15 -6 -19 -17 -11 -23 -131 -9 -182 7 -24 14 -49 15 -56 4 -21 55
-61 71 -55 30 12 10 -17 -27 -38 -22 -13 -41 -25 -41 -28 -1 -3 -2 -32 -4 -64
-1 -42 2 -60 12 -64 7 -3 13 -11 13 -19 0 -8 4 -14 8 -14 4 0 16 -14 25 -30
10 -17 15 -30 11 -30 -3 0 0 -8 7 -17 8 -9 9 -14 3 -10 -12 7 -18 -335 -7
-380 9 -41 41 -44 570 -42 l502 1 56 54 55 54 0 513 c-1 576 6 524 -81 585
-73 49 -134 69 -214 67 -84 -2 -145 -13 -145 -28 0 -6 -3 -8 -6 -5 -3 4 -21 0
-39 -8 -24 -10 -41 -11 -58 -5 -14 6 -28 7 -31 4 -3 -4 -6 -2 -6 4 0 13 -32
22 -108 29 -31 4 -59 8 -61 10 -2 2 -11 -2 -19 -9 -13 -9 -14 -9 -8 1 8 13 1
14 -24 5z"/>
</g>
</svg>
